<?xml version="1.0" encoding="UTF-8"?>
<svg width="48px" height="48px" viewBox="0 0 48 48" version="1.1" xmlns="http://www.w3.org/2000/svg" xmlns:xlink="http://www.w3.org/1999/xlink">
    <!-- Generator: Sketch 39.1 (31720) - http://www.bohemiancoding.com/sketch -->
    <title>Pause</title>
    <desc>Created with Sketch.</desc>
    <defs></defs>
    <g id="Page-1" stroke="none" stroke-width="1" fill="none" fill-rule="evenodd">
        <g id="Main-Page" transform="translate(-936.000000, -1006.000000)" fill="#000000">
            <path d="M962.4,1039.6 L962.4,1020.4 L967.2,1020.4 L967.2,1039.6 L962.4,1039.6 L962.4,1039.6 Z M952.8,1039.6 L952.8,1020.4 L957.6,1020.4 L957.6,1039.6 L952.8,1039.6 L952.8,1039.6 Z M960,1006 C966.365196,1006 972.46969,1008.52856 976.970563,1013.02944 C981.471436,1017.53031 984,1023.6348 984,1030 C984,1043.25483 973.254834,1054 960,1054 C953.634804,1054 947.53031,1051.47144 943.029437,1046.97056 C938.528564,1042.46969 936,1036.3652 936,1030 C936,1023.6348 938.528564,1017.53031 943.029437,1013.02944 C947.53031,1008.52856 953.634804,1006 960,1006 L960,1006 Z M960,1010.8 C949.396133,1010.8 940.8,1019.39613 940.8,1030 C940.8,1040.60387 949.396133,1049.2 960,1049.2 C965.092157,1049.2 969.975752,1047.17715 973.57645,1043.57645 C977.177149,1039.97575 979.2,1035.09216 979.2,1030 C979.2,1019.39613 970.603867,1010.8 960,1010.8 L960,1010.8 Z" id="Pause"></path>
        </g>
    </g>
</svg>