<?xml version="1.0" encoding="UTF-8"?>
<svg width="48px" height="48px" viewBox="0 0 48 48" version="1.1" xmlns="http://www.w3.org/2000/svg" xmlns:xlink="http://www.w3.org/1999/xlink">
    <!-- Generator: Sketch 39.1 (31720) - http://www.bohemiancoding.com/sketch -->
    <title>Play</title>
    <desc>Created with Sketch.</desc>
    <defs></defs>
    <g id="Page-1" stroke="none" stroke-width="1" fill="none" fill-rule="evenodd">
        <g id="Main-Page" transform="translate(-936.000000, -1007.000000)" fill="#000000">
            <path d="M960,1050.2 C949.416,1050.2 940.8,1041.584 940.8,1031 C940.8,1020.416 949.416,1011.8 960,1011.8 C970.584,1011.8 979.2,1020.416 979.2,1031 C979.2,1041.584 970.584,1050.2 960,1050.2 L960,1050.2 Z M960,1007 C946.745166,1007 936,1017.74517 936,1031 C936,1037.3652 938.528564,1043.46969 943.029437,1047.97056 C947.53031,1052.47144 953.634804,1055 960,1055 C966.365196,1055 972.46969,1052.47144 976.970563,1047.97056 C981.471436,1043.46969 984,1037.3652 984,1031 C984,1024.6348 981.471436,1018.53031 976.970563,1014.02944 C972.46969,1009.52856 966.365196,1007 960,1007 L960,1007 Z M955.2,1041.8 L969.6,1031 L955.2,1020.2 L955.2,1041.8 L955.2,1041.8 Z" id="Play"></path>
        </g>
    </g>
</svg>